<svg id="Capa_1" enable-background="new 0 0 512 512" height="512" viewBox="0 0 512 512" width="512" xmlns="http://www.w3.org/2000/svg"><g><path fill="#555" d="m512 285c0-24.81-20.19-45-45-45-5.26 0-10.31.91-15 2.58v-152.58h45c8.284 0 15-6.716 15-15s-6.716-15-15-15h-45v-30c0-16.57-13.43-30-30-30s-30 13.43-30 30v135c0 8.28-6.72 15-15 15s-15-6.72-15-15v-135c0-16.57-13.43-30-30-30h-61v75c0 86.47 38.12 168.32 102.56 225h63.44c5.13 0 10.15.52 15 1.51v31.07c17.46 6.18 30 22.87 30 42.42 0 8.28 6.72 15 15 15s15-6.72 15-15c0-20.16-7.99-38.48-20.97-51.97 12.59-7.98 20.97-22.05 20.97-38.03zm-60 0c0-8.27 6.73-15 15-15s15 6.73 15 15-6.73 15-15 15h-15z"/><path fill="#555" d="m75 512h90c8.28 0 15-6.72 15-15v-37.15c0-47.55-16.53-93.4-46.41-129.85h-58.59c-5.26 0-10.31.91-15 2.58v164.42c0 8.28 6.72 15 15 15z"/><path fill="#555" d="m378.41 330c-29.88 36.45-46.41 82.3-46.41 129.85v37.15c0 8.28 6.72 15 15 15h90c8.28 0 15-6.72 15-15v-164.42c-4.69-1.67-9.74-2.58-15-2.58z"/><path fill="#555" d="m150 30v135c0 8.28-6.72 15-15 15s-15-6.72-15-15v-135c0-16.57-13.43-30-30-30s-30 13.43-30 30v30h-45c-8.284 0-15 6.716-15 15s6.716 15 15 15h45v152.58c-4.69-1.67-9.74-2.58-15-2.58-24.81 0-45 20.19-45 45 0 15.99 8.38 30.05 20.98 38.03-12.99 13.48-20.98 31.81-20.98 51.97 0 8.28 6.72 15 15 15s15-6.72 15-15c0-19.55 12.54-36.24 30-42.42v-31.07c4.85-.99 9.87-1.51 15-1.51h63.44c64.44-56.68 102.56-138.53 102.56-225v-75h-61c-16.57 0-30 13.43-30 30zm-90 270h-15c-8.27 0-15-6.73-15-15s6.73-15 15-15 15 6.73 15 15z"/></g></svg>