<?xml version="1.0" encoding="utf-8"?>
<!-- Generator: Adobe Illustrator 22.0.1, SVG Export Plug-In . SVG Version: 6.00 Build 0)  -->
<svg version="1.1" id="Слой_1" xmlns="http://www.w3.org/2000/svg" xmlns:xlink="http://www.w3.org/1999/xlink" x="0px" y="0px"
	 viewBox="0 0 64.9 71.8" style="enable-background:new 0 0 64.9 71.8;" xml:space="preserve">
<g>
	<path fill="#555" d="M42.2,6.9c-0.3-0.8-1.4-1.4-2.7-1.9c0.2,2.5-2.5,6.7-4.4,9.2c2.7-1.4,5.3-3.9,6.4-5.2C42.2,8.2,42.5,7.5,42.2,6.9z"/>
	<path fill="#555" d="M0.8,67.2H0.6l-0.6,3c0,0.3,0.2,0.8,0.5,0.9c0.2,0.2,2,0.8,7.3,0c0.5,0,0.8-0.5,0.6-0.9c0,0-0.2-1.9,0.6-3.1
		C8,66.5,4.4,65.1,0.8,67.2z"/>
	<path fill="#555" d="M38,4.7c-0.2-0.3-0.5-0.5-1.1-0.5h-0.2c0,0-1.1-0.2-3.1-0.2c-2.2,0-4.4,0.3-6.7,0.8c-0.2,0-0.6,0.2-0.8,0.8
		c-0.3,0.8-0.2,3.3,5.9,9.7l0,0l0,0c0.2,0,0.3,0,0.5-0.2C35.2,11.8,38.6,6.3,38,4.7z"/>
	<path fill="#555" d="M20.6,7.5c-0.3,0.9,0.9,2.2,1.9,3.1c0,0,3.1,2.8,6.6,4.1c-3.6-4.2-5.2-7.3-4.7-9.4C22.7,5.7,20.9,6.4,20.6,7.5z"/>
	<path fill="#555" d="M31.3,32.5c-0.6-4.7,0-15.2,0-15.6c-0.2,0-0.2,0-0.3,0c-1.1,0-2-0.2-3-0.3c0.2,0.8,0.2,2-0.3,3.8c-0.6,2,0,3.6,0.3,4.7
		c0.2,0.5,0.3,0.9,0.5,1.4c0.2,0.9,0,2.2,0,2.8c0,0.3,0,0.6,0,0.6c0.2,0.5-0.2,0.9-0.6,0.9h-0.2c-0.5,0-0.8-0.3-0.8-0.6
		c0-0.2,0-0.5,0-1.1c0-0.8,0.2-1.7,0-2.5c0-0.3-0.2-0.6-0.3-1.1c-0.5-1.4-1.1-3.3-0.5-5.8c0.6-2,0.3-3.3,0.2-3.6
		c-7.5-2-12.7-6.9-12.8-7.2l0,0c-0.9,0.5-2,1.1-3,2.2c-1.9,2.2-2.8,5.3-2.3,9.5C8,21.9,6.9,29.6,7.8,32.5c-0.8,1.1-2.8,4.2-2,6.4
		C5.3,40,4.1,46,4.4,47.9c0.2,0.6-0.2,1.3-0.6,2.3c-0.8,1.7-1.9,4.2-1.9,8.6c0,2-0.6,3-1.1,3.6c-0.6,0.9-1.1,1.7-0.3,3.3
		c5-2.7,9.8,0.2,10,0.2l0.2,0.2c0.2,0,0.2-0.2,0.3-0.2c0.2-0.2,1.4-2,2.5-9.7c0.3-2.3,0.8-4.2,1.2-5.6c-0.2,2.8-0.5,6.7-0.9,11.1
		h0.2c0.2,0,6.9,3.4,17.7,3.8c-0.2-6.6-0.5-16.6,0.3-18.7c0.9-3,0.5-9.4-0.3-13.8L31.3,32.5z M24.2,46.3c-0.3,0.9-3.4,9.8-6.9,11.7
		c-0.2,0-0.3,0.2-0.5,0.2c-0.3,0-0.6-0.2-0.8-0.5c-0.2-0.5,0-0.9,0.3-1.1c2.5-1.4,5.3-8.3,6.1-10.8c0.2-0.5,0.6-0.6,1.1-0.5
		C24.1,45.4,24.4,45.8,24.2,46.3z M23.4,37.8L23.4,37.8c-6.3-0.2-10.2-13.9-10.6-15.5c-0.2-0.5,0.2-0.9,0.6-1.1
		c0.5-0.2,0.9,0.2,0.9,0.6c1.1,3.9,4.7,14.2,9.1,14.4c0.5,0,0.8,0.3,0.8,0.8C24.2,37.5,23.9,37.8,23.4,37.8z"/>
	<path fill="#555" d="M23.4,13.3c-1.1-0.8-1.9-1.4-1.9-1.6c-2-1.7-2.8-3.4-2.5-4.8c0.9-3,6.6-3.7,7.3-3.9l0,0c2.3-0.5,4.8-0.8,7-0.8
		c1.9,0,3,0.2,3.4,0.3c0.3,0,0.6,0,0.8,0.2l0,0c0.5,0.2,5,0.9,6.1,3.6c0.5,1.3,0.2,2.5-0.9,3.9c-0.2,0.2-1.6,1.7-3.4,3.3
		c3.4-1.2,6.9-3.1,8.7-6.3l0,0c0-0.5-0.2-1.1-0.5-1.7c-1.1-1.9-3.4-3.3-6.9-4.4C40.5,1,32.3-1.7,22.3,1.8c-4.2,1.4-6.4,2.8-7.2,4.4
		c-0.5,0.9-0.3,1.7,0,2.2C16.3,9.3,19.2,11.6,23.4,13.3z"/>
	<path fill="#555" d="M62.5,56.3c0-1.4-0.2-11.7-3.3-16.7c0-1.1,0-4.7-1.7-6.9c-0.2-1.3-1.4-8.8-1.1-13.9c0-0.2,1.1-8.4-6.9-11.1v0.2
		c-2.3,4.2-7.5,6.6-11.6,7.7c-0.5,1.7-1.4,5.6-0.3,7.5c1.1,2.2,0.9,3.7,0.6,5c0,0.5-0.2,0.9-0.2,1.4s-0.3,0.8-0.8,0.8l0,0
		c-0.5,0-0.8-0.3-0.8-0.8c0-0.6,0.2-1.1,0.2-1.7c0.2-1.3,0.3-2.3-0.5-4.1c-1.1-2.2-0.5-5.8,0-7.8c-0.9,0.2-1.7,0.5-2.5,0.5
		c-0.3,0-0.5,0.2-0.8,0.2v0.2c0,0.2-0.6,10.8,0,15.3v0.2c0.6,4.7,1.3,11.3,0.2,14.6c-0.6,1.9-0.5,11.3-0.2,18.3
		c5.5,0,11.7-0.8,18.8-3.1c0,0,0,0,0.2,0c-0.2-1.2-0.3-3.6-0.8-6.6c0.2,0.8,0.6,1.7,1.2,2.8c0.8,1.4,0.8,2,0.8,2.8
		c0,1.1,0,2.2,1.7,4.8c1.2-0.8,4.7-2.5,9.4-1.3c0-0.2,0.2-0.5,0.2-0.6l0.2-0.2C65.2,63.2,65.2,61.8,62.5,56.3z M47.7,57.7
		c-0.2,0.3-0.5,0.5-0.8,0.5c-0.2,0-0.3,0-0.5-0.2c-3.6-1.9-6.6-10.8-6.9-11.7c-0.2-0.5,0.2-0.9,0.5-1.1c0.5-0.2,0.9,0.2,1.1,0.5
		c0.8,2.5,3.6,9.4,6.1,10.8C47.8,56.8,48,57.4,47.7,57.7z M51.1,22.8c-0.5,1.6-4.4,15.5-10.6,15.5l0,0c-0.5,0-0.8-0.3-0.8-0.8
		c0-0.5,0.3-0.8,0.8-0.8c4.2,0,8-10.3,9.1-14.4c0.2-0.5,0.6-0.6,1.1-0.6C50.9,22.1,51.1,22.5,51.1,22.8z"/>
	<path fill="#555" d="M33.1,67.1c0,1.1,0.2,2.2,0.2,3c5-0.2,10.9-0.8,18.1-2.5c0.3-0.2,0.6-0.5,0.6-0.8V64C44.8,66.3,38.6,67.1,33.1,67.1z"/>
	<path fill="#555" d="M13.3,63.2l-0.5,2.3c0,0.3,0,0.6,0.3,0.8c0.3,0.2,5.8,3.9,18.3,3.8c0-0.8-0.2-1.7-0.2-3.1C21.4,66.8,14.7,64,13.3,63.2z"/>
	<path fill="#555" d="M64.1,66.5c-4.1-1.1-7.2,0.3-8.3,1.1c0.5,0.8,0.8,1.9,0.6,3.1c0,0.5,0.3,0.8,0.6,0.9c0.2,0,1.1,0.2,2.3,0.2
		c1.4,0,3.3-0.2,4.7-0.9c0.3-0.2,0.5-0.6,0.3-1.1C64.5,69.7,64.1,68.2,64.1,66.5z"/>
</g>
</svg>
