<?xml version="1.0" encoding="utf-8"?>
<!-- Generator: Adobe Illustrator 22.0.1, SVG Export Plug-In . SVG Version: 6.00 Build 0)  -->
<svg version="1.1" id="Capa_1" xmlns="http://www.w3.org/2000/svg" xmlns:xlink="http://www.w3.org/1999/xlink" x="0px" y="0px"
	 viewBox="0 0 70.5 90.7" style="enable-background:new 0 0 70.5 90.7;" xml:space="preserve">
<g>
	<g>
		<polygon points="35.2,39.7 40.1,12.7 36.2,7.3 38.1,3.5 32.4,3.5 34.3,7.3 30.4,12.7 		"/>
		<path fill="#555" d="M62.9,81.6h7.6l-1.9-28.7l-3.8-41.4L46.7,3.8L44.8,0l-1.9,7.6L35.2,50L27.6,7.6L25.7,0l-1.9,3.8L5.7,11.4L1.9,52.9L0,81.6
			h7.6l7-38.3l2.6,9.6L9.5,81.2l21.9,9.5L35.2,72L39,90.7l21.9-9.5l-7.6-28.4l2.6-9.6L62.9,81.6z M55.3,27.3l-7.7,1.1l5.1-6.3l2.6,2
			V27.3z"/>
	</g>
</g>
</svg>
