<?xml version="1.0" encoding="utf-8"?>
<!-- Generator: Adobe Illustrator 22.0.1, SVG Export Plug-In . SVG Version: 6.00 Build 0)  -->
<svg version="1.1" id="Capa_1" xmlns="http://www.w3.org/2000/svg" xmlns:xlink="http://www.w3.org/1999/xlink" x="0px" y="0px"
	 viewBox="0 0 249.1 467.3" style="enable-background:new 0 0 249.1 467.3;" xml:space="preserve">
<g>
	<g>
		<path fill="#555" d="M173.6,0c-7.2,49.1-49.1,44.5-49.1,44.5S82.7,49.1,75.5,0c0,0-45.8,18.3-75.2,47.8c0,0-2,11.8,5.2,22.2
			c7.2,10.5,9.8,20.3,9.2,30.8c-0.7,10.5,9.2,38.6,22.2,37.9c5.4-0.3,12.3,3.3,17.9,9.8c16.8-4.2,36-1.9,52.5-0.8
			c29.2,1.9,58.2-4.2,87,0.7c5.6-6.5,12.5-10,17.9-9.8c13.1,0.7,22.9-27.5,22.2-37.9c-0.7-10.5,2-20.3,9.2-30.7
			c7.2-10.5,5.2-22.2,5.2-22.2C219.4,18.3,173.6,0,173.6,0z"/>
		<path fill="#555" d="M189.5,155.5c-25.6-3.5-51,2.2-77,0.4c-15.5-1-36-4.3-53.1-0.7c5,9.2,7.3,21.7,2.9,36.5c-9.7,32.1-26,66.1-23.4,123.6
			c2.6,57.6,37.3,143.5,37.3,143.5s28.8,8.5,48.4,8.5c19.6,0,48.4-8.5,48.4-8.5s34.7-85.9,37.3-143.5c2.6-57.6-13.7-91.6-23.4-123.6
			C182.4,177.1,184.6,164.7,189.5,155.5z"/>
	</g>
</g>
</svg>
